<?xml version="1.0" encoding="UTF-8" standalone="no"?>
<!DOCTYPE svg PUBLIC "-//W3C//DTD SVG 1.0//EN" "http://www.w3.org/TR/2001/REC-SVG-20010904/DTD/svg10.dtd">
<!-- Created with Inkscape (http://www.inkscape.org/) -->
<svg xmlns:svg="http://www.w3.org/2000/svg" xmlns="http://www.w3.org/2000/svg" xmlns:xlink="http://www.w3.org/1999/xlink" version="1.0" width="800" height="300" id="svg2">
  <defs id="defs4">
    <linearGradient id="linearGradient3295">
      <stop id="stop3297" style="stop-color:#595145;stop-opacity:1" offset="0"/>
      <stop id="stop3299" style="stop-color:#9f9089;stop-opacity:1" offset="1"/>
    </linearGradient>
    <linearGradient id="linearGradient3287">
      <stop id="stop3289" style="stop-color:#fece89;stop-opacity:1" offset="0"/>
      <stop id="stop3291" style="stop-color:#693601;stop-opacity:1" offset="1"/>
    </linearGradient>
    <linearGradient id="linearGradient3236">
      <stop id="stop3238" style="stop-color:#5a5a70;stop-opacity:1" offset="0"/>
      <stop id="stop3240" style="stop-color:#cbced7;stop-opacity:1" offset="1"/>
    </linearGradient>
    <linearGradient id="linearGradient3228">
      <stop id="stop3230" style="stop-color:#542c00;stop-opacity:1" offset="0"/>
      <stop id="stop3232" style="stop-color:#d88b00;stop-opacity:1" offset="1"/>
    </linearGradient>
    <linearGradient id="linearGradient3220">
      <stop id="stop3222" style="stop-color:#947a40;stop-opacity:1" offset="0"/>
      <stop id="stop3224" style="stop-color:#d08d1a;stop-opacity:1" offset="1"/>
    </linearGradient>
    <linearGradient x1="589.75726" y1="458.63596" x2="589.87042" y2="467.00027" id="linearGradient3226" xlink:href="#linearGradient3220" gradientUnits="userSpaceOnUse" gradientTransform="matrix(1.9037326,0,0,1.4277271,-610.70507,-447.45957)"/>
    <linearGradient x1="275.46393" y1="373.27942" x2="302.13046" y2="394.88254" id="linearGradient3234" xlink:href="#linearGradient3228" gradientUnits="userSpaceOnUse" gradientTransform="matrix(2.0207792,0,0,1.7934655,-322.48037,-607.80525)" spreadMethod="reflect"/>
    <linearGradient x1="312.68277" y1="417.5372" x2="386.1951" y2="436.70108" id="linearGradient3242" xlink:href="#linearGradient3236" gradientUnits="userSpaceOnUse" gradientTransform="matrix(1.9037326,0,0,1.9037326,-322.48037,-607.80525)" spreadMethod="reflect"/>
    <linearGradient x1="295.89005" y1="-514.31232" x2="344.67145" y2="-477.47745" id="linearGradient3293" xlink:href="#linearGradient3287" gradientUnits="userSpaceOnUse" gradientTransform="matrix(1.8357788,0,0,1.596003,-285.1641,974.8592)" spreadMethod="reflect"/>
    <linearGradient x1="324.81879" y1="-566.81647" x2="402.34583" y2="-537.96777" id="linearGradient3301" xlink:href="#linearGradient3295" gradientUnits="userSpaceOnUse" gradientTransform="matrix(1.8521637,0,0,1.5818841,-285.1641,974.8592)" spreadMethod="reflect"/>
  </defs>
  <g id="layer1">
    <flowRoot id="flowRoot2411" xml:space="preserve" style="font-size:49.71629333px;font-style:normal;font-variant:normal;font-weight:normal;font-stretch:normal;text-align:start;line-height:100%;writing-mode:lr-tb;text-anchor:start;fill:#000000;fill-opacity:1;stroke:none;stroke-width:1px;stroke-linecap:butt;stroke-linejoin:miter;stroke-opacity:1;font-family:FederationDS9Title;-inkscape-font-specification:FederationDS9Title"><flowRegion id="flowRegion2413"><rect width="557.14288" height="139.28572" x="167.14285" y="501.64789" id="rect2415"/></flowRegion><flowPara id="flowPara2417"/></flowRoot>    <path d="M 157.3563,144.55951 L 112.54321,223.20155 L 68.690809,144.55951 L 88.07263,144.55951 L 112.54321,189.97511 L 137.55917,144.55951 L 157.3563,144.55951 z M 256.18677,185.55461 C 256.18667,195.67213 252.26835,204.37628 244.43183,211.66712 C 236.59513,218.95798 227.22446,222.6034 216.31981,222.6034 L 201.47301,222.6034 C 190.47595,222.6034 181.08223,218.97804 173.29176,211.72729 C 165.50128,204.47657 161.60603,195.75236 161.60603,185.55461 C 161.60603,175.27671 165.52437,166.47227 173.36098,159.14124 C 181.19759,151.81033 190.56825,148.14483 201.47301,148.14474 L 216.31981,148.14474 C 227.31675,148.14483 236.71048,151.77021 244.50105,159.02085 C 252.29144,166.27166 256.18667,175.11624 256.18677,185.55461 L 256.18677,185.55461 z M 238.31523,185.55461 C 238.31516,179.17928 236.20705,173.74123 231.99097,169.24046 C 227.77471,164.73982 222.55101,162.48947 216.31981,162.4894 L 201.47301,162.4894 C 195.51579,162.48947 190.33751,164.75927 185.93819,169.29881 C 183.82936,171.53098 182.22542,174.00139 181.1263,176.71003 C 180.02713,179.41876 179.47756,182.36697 179.47758,185.55461 C 179.47756,191.76956 181.6311,197.10792 185.93819,201.56972 C 190.24523,206.03153 195.42349,208.26242 201.47301,208.2624 L 216.31981,208.2624 C 222.36921,208.26242 227.54749,206.03153 231.85463,201.56972 C 236.16162,197.10792 238.31516,191.76956 238.31523,185.55461 L 238.31523,185.55461 z M 366.00023,149.34105 L 320.77182,188.66208 L 320.49913,222.3627 L 304.00362,225.47015 L 304.2763,189.0195 L 258.63676,149.34105 L 282.69621,149.34105 L 312.25137,175.51373 L 342.49457,149.34105 L 366.00023,149.34105 z M 378.1673,196.54744 L 363.18206,217.70151 C 362.90794,218.41879 362.54227,219.13608 362.08501,219.85337 C 361.62771,220.57067 361.07746,221.3682 360.43422,222.24598 L 359.33505,223.55899 L 336.51319,229.17575 L 393.0141,147.66698 L 445.66385,222.96083 L 428.20761,228.45723 L 426.00514,224.39421 L 422.98459,218.42001 L 407.31133,196.54744 L 378.1673,196.54744 z M 388.20221,182.20645 L 397.41488,182.20645 L 392.87568,175.63409 L 388.20221,182.20645 z M 543.25147,148.14474 L 526.34064,162.00797 L 492.52314,162.4894 C 486.93231,162.48947 482.07568,164.75927 477.95322,169.29881 C 475.93671,171.61123 474.42434,174.08163 473.41611,176.71003 C 472.40785,179.33853 471.90372,182.28672 471.90374,185.55461 C 471.90372,191.84736 473.89715,197.20518 477.884,201.62805 C 481.87082,206.05097 486.75051,208.26242 492.52314,208.2624 L 521.39448,208.2624 L 521.39448,190.57322 L 499.81021,190.57322 C 497.1532,190.57326 492.84612,190.93191 486.88899,191.64918 C 486.52258,191.64921 485.94993,191.68872 485.17106,191.76771 C 484.39213,191.84676 483.544,192.00663 482.62667,192.24733 L 500.35977,176.23225 L 537.89001,176.23225 L 537.61312,222.6034 L 492.52314,222.6034 C 482.16658,222.6034 473.16228,218.97804 465.51026,211.72729 C 457.85822,204.47657 454.0322,195.75236 454.0322,185.55461 C 454.0322,175.27671 457.76663,166.47227 465.23548,159.14124 C 472.7043,151.81033 481.80019,148.14483 492.52314,148.14474 L 543.25147,148.14474 z M 573.26366,176.58968 L 638.15077,176.58968 L 619.72967,192.84549 L 573.12941,192.4844 C 574.50262,196.78817 576.97638,200.45367 580.55071,203.48086 C 584.21729,206.26982 588.295,207.66427 592.78391,207.66425 L 630.59103,207.66425 C 633.79609,207.66427 637.69062,207.26551 642.27464,206.46796 L 648.59682,205.15495 L 630.59103,222.00525 L 589.07536,222.00525 C 579.35927,222.00525 571.08773,218.22063 564.26076,210.65137 C 557.43377,203.08212 554.02027,193.91901 554.02027,183.16202 C 554.02027,173.52117 557.47992,165.17566 564.3992,158.12546 C 571.31845,151.07539 579.54384,147.55034 589.07536,147.55025 L 647.49768,147.55025 L 630.45258,161.65053 L 592.78391,161.89125 C 588.4768,161.89132 584.5592,163.22559 581.03107,165.89411 C 577.50288,168.56275 574.91373,172.12792 573.26366,176.58968 L 573.26366,176.58968 z M 742.67022,221.64783 L 724.66443,225.11271 L 725.35245,220.80896 L 726.1747,215.43291 C 726.17465,207.46489 721.95916,200.73208 713.52828,195.23442 C 705.0973,189.73684 694.32892,186.98802 681.22316,186.98799 L 705.41687,166.07466 L 705.96645,165.11542 C 705.9664,164.40062 704.84417,163.68454 702.59979,162.96719 C 700.35531,162.24995 698.13257,161.89132 695.93153,161.89125 L 676.96084,161.89125 L 676.68815,221.76455 L 658.67818,224.872 L 658.81661,147.55025 L 696.20842,147.55025 C 704.08974,147.55034 710.71117,148.94419 716.07267,151.73183 C 721.43408,154.51962 724.11479,157.82585 724.11486,161.65053 C 724.11479,163.56418 723.15269,165.67593 721.22856,167.98582 L 717.51582,171.4507 L 710.91676,176.8304 C 721.27327,180.733 729.06372,186.03123 734.28821,192.72512 C 736.94511,196.38942 739.00633,200.65184 740.47194,205.51237 C 741.93738,210.37296 742.67014,215.75144 742.67022,221.64783 L 742.67022,221.64783 z" id="text3277" style="font-size:74.88278198px;font-style:normal;font-variant:normal;font-weight:normal;font-stretch:normal;text-align:start;line-height:100%;writing-mode:lr-tb;text-anchor:start;fill:url(#linearGradient3293);fill-opacity:1;stroke:none;stroke-width:1px;stroke-linecap:butt;stroke-linejoin:miter;stroke-opacity:1;font-family:FederationDS9Title;-inkscape-font-specification:FederationDS9Title"/>
    <path d="M 216.42751,127.16599 L 60.550316,127.16599 L 71.500512,117.81374 L 205.38542,117.81374 C 205.02148,114.85172 202.89197,112.27978 198.99689,110.09789 C 195.95575,108.43454 191.758,107.00507 186.40364,105.80945 C 175.21021,103.4722 167.30207,100.84873 162.67917,97.939007 C 158.78589,95.54943 156.83925,92.873626 156.83925,89.911562 C 156.83925,86.844922 158.02515,84.194491 160.39696,81.960238 C 162.76872,79.72608 165.68869,78.608985 169.15683,78.608938 L 213.78186,78.608938 L 202.83169,87.573507 L 177.82617,87.963584 L 175.36156,87.963584 L 173.08072,87.88509 C 171.31694,87.885121 169.99414,88.040921 169.11226,88.352457 C 168.23037,88.664089 167.78942,89.3138 167.78942,90.301639 C 167.78942,90.767868 169.08208,91.442953 171.66739,92.326926 C 174.25269,93.210977 179.317,94.561558 186.86033,96.378701 C 195.74225,98.405221 202.61719,100.97795 207.48523,104.09694 C 213.44669,107.99294 216.42744,112.95449 216.42751,118.98158 L 216.42751,127.16599 z M 270.40978,78.608938 L 259.09476,87.963584 L 241.29933,87.963584 L 241.11553,126.85441 L 230.07346,129.50407 L 230.34916,87.963584 L 204.88694,87.963584 L 215.47507,78.608938 L 270.40978,78.608938 z M 277.72189,110.174 L 267.77428,123.96929 C 267.59231,124.43707 267.34955,124.90486 267.04604,125.37261 C 266.74247,125.84038 266.37717,126.36048 265.95017,126.93291 L 265.22053,127.78917 L 250.07074,131.45206 L 287.57761,78.297354 L 322.52796,127.39911 L 310.94005,130.98349 L 309.47797,128.33385 L 307.47286,124.43785 L 297.06851,110.174 L 277.72189,110.174 z M 284.38336,100.82174 L 290.49896,100.82174 L 287.48571,96.535686 L 284.38336,100.82174 z M 379.40652,126.54285 L 367.45379,128.80241 L 367.9105,125.99577 L 368.45634,122.48987 C 368.45629,117.29366 365.65794,112.90295 360.06131,109.31774 C 354.46457,105.73257 347.31623,103.93998 338.61627,103.93995 L 354.67672,90.301639 L 355.04153,89.676099 C 355.04151,89.209949 354.29655,88.742962 352.80665,88.275167 C 351.31672,87.80742 349.84119,87.573537 348.38007,87.573507 L 335.78682,87.573507 L 335.60579,126.61895 L 323.65028,128.64543 L 323.74218,78.22125 L 348.56389,78.22125 C 353.79572,78.221296 358.19121,79.130279 361.75032,80.948196 C 365.30937,82.766207 367.0889,84.922316 367.08897,87.41652 C 367.0889,88.664484 366.45025,90.041625 365.17297,91.547974 L 362.70834,93.807553 L 358.3277,97.31584 C 365.20261,99.860855 370.37415,103.31602 373.8423,107.68134 C 375.60604,110.07095 376.97433,112.85062 377.94724,116.02035 C 378.92004,119.1901 379.40647,122.6976 379.40652,126.54285 L 379.40652,126.54285 z M 470.92171,78.608938 L 459.6067,87.963584 L 441.81126,87.963584 L 441.62746,126.85441 L 430.58538,129.50407 L 430.86109,87.963584 L 405.39887,87.963584 L 415.98702,78.608938 L 470.92171,78.608938 z M 524.69787,126.54285 L 512.74514,128.80241 L 513.20187,125.99577 L 513.74769,122.48987 C 513.74766,117.29366 510.94931,112.90295 505.35266,109.31774 C 499.75594,105.73257 492.6076,103.93998 483.90764,103.93995 L 499.96808,90.301639 L 500.3329,89.676099 C 500.33286,89.209949 499.5879,88.742962 498.09802,88.275167 C 496.60809,87.80742 495.13256,87.573537 493.67145,87.573507 L 481.07818,87.573507 L 480.89717,126.61895 L 468.94163,128.64543 L 469.03353,78.22125 L 493.85525,78.22125 C 499.08709,78.221296 503.48256,79.130279 507.04169,80.948196 C 510.60074,82.766207 512.38029,84.922316 512.38032,87.41652 C 512.38029,88.664484 511.74162,90.041625 510.46432,91.547974 L 507.99969,93.807553 L 503.61907,97.31584 C 510.49398,99.860855 515.66551,103.31602 519.13367,107.68134 C 520.89739,110.07095 522.26568,112.85062 523.23859,116.02035 C 524.2114,119.1901 524.69782,122.6976 524.69787,126.54285 L 524.69787,126.54285 z M 539.29908,97.158853 L 582.37293,97.158853 L 570.14448,107.75982 L 539.20995,107.52435 C 540.12153,110.331 541.76366,112.72138 544.13642,114.69553 C 546.57038,116.5143 549.27728,117.42367 552.25714,117.42367 L 577.35454,117.42367 C 579.48215,117.42367 582.06746,117.16363 585.11047,116.64352 L 589.30731,115.78726 L 577.35454,126.77593 L 549.79531,126.77593 C 543.34549,126.77593 537.85463,124.30785 533.3227,119.37165 C 528.79074,114.4355 526.5248,108.45991 526.5248,101.44491 C 526.5248,95.157771 528.82138,89.715378 533.4146,85.117695 C 538.00781,80.520106 543.46803,78.221296 549.79531,78.22125 L 588.57767,78.22125 L 577.26264,87.41652 L 552.25714,87.573507 C 549.39797,87.573537 546.79735,88.443668 544.45529,90.1839 C 542.11317,91.92421 540.39444,94.249183 539.29908,97.158853 L 539.29908,97.158853 z M 603.00339,93.886047 L 620.97984,78.608938 L 637.13219,78.608938 L 615.13993,96.925763 C 622.68322,98.224443 628.37181,101.52343 632.20572,106.8227 C 634.36136,109.85058 631.76085,119.23621 636.73046,119.23621 L 743.50652,119.23621 L 750.5309,129.22121 L 637.58889,129.22121 L 626.2739,130.43881 L 626.63872,122.87993 C 626.63868,117.57908 624.78301,113.26606 621.07173,109.94091 C 616.8127,106.14802 610.7899,104.25156 603.00339,104.25153 L 603.00339,127.24449 L 591.68837,129.89415 L 591.78027,78.999015 L 603.00339,78.999015 L 603.00339,93.886047 z" id="text3281" style="font-size:49.26951599px;font-style:normal;font-variant:normal;font-weight:normal;font-stretch:normal;text-align:start;line-height:100%;writing-mode:lr-tb;text-anchor:start;fill:url(#linearGradient3301);fill-opacity:1;stroke:none;stroke-width:1px;stroke-linecap:butt;stroke-linejoin:miter;stroke-opacity:1;font-family:FederationDS9Title;-inkscape-font-specification:FederationDS9Title"/>
  </g>
</svg>